<?xml version="1.0" encoding="UTF-8" standalone="no"?>
<svg width="104px" height="56px" viewBox="0 0 104 56" version="1.1" xmlns="http://www.w3.org/2000/svg" xmlns:xlink="http://www.w3.org/1999/xlink" xmlns:sketch="http://www.bohemiancoding.com/sketch/ns">
    <!-- Generator: Sketch 3.3.1 (12005) - http://www.bohemiancoding.com/sketch -->
    <title>logo</title>
    <desc>Created with Sketch.</desc>
    <defs>
        <rect id="path-1" x="0" y="0" width="104" height="56"></rect>
        <rect id="path-3" x="0" y="0" width="104" height="56"></rect>
        <rect id="path-5" x="0" y="0" width="104" height="56"></rect>
        <rect id="path-7" x="0" y="0" width="104" height="56"></rect>
        <rect id="path-9" x="0" y="0" width="104" height="56"></rect>
        <rect id="path-11" x="0" y="0" width="104" height="56"></rect>
    </defs>
    <g id="Page-1" stroke="none" stroke-width="1" fill="none" fill-rule="evenodd" sketch:type="MSPage">
        <g id="Web-M-Copy" sketch:type="MSArtboardGroup" transform="translate(-56.000000, -48.000000)">
            <g id="logo" sketch:type="MSLayerGroup" transform="translate(56.000000, 48.000000)">
                <g id="Clipped">
                    <mask id="mask-2" sketch:name="SVGID_1_" fill="white">
                        <use xlink:href="#path-1"></use>
                    </mask>
                    <g id="SVGID_1_"></g>
                    <path d="M26.6,19.7 C26.4,19.2 26.2,17.4 26.2,16.3 C26.2,10.5 30.4,5.4 41.3,5.4 L47,5.4 C47,5.4 45.7,6 42.9,8 C40.1,10.1 26.6,19.7 26.6,19.7 L26.6,19.7 Z M71.7,15.4 L92.4,0 L82.1,0 L66.5,11.7 L62.4,9 L52.6,9 L61.5,15.4 L54.6,21.1 C51.1,24 46.2,28.1 38.9,28.1 C36,28.1 32,27.5 29.7,25 L63.3,0 L43,0 C30.6,0 24.3,7 24.3,15.7 C24.3,17.5 24.7,19.8 25.2,20.8 L11.2,31 L21.8,31 L28.2,26.2 C30.5,29 35.5,31.7 40.8,31.7 C49.5,31.8 57.3,26.1 60.1,23.9 L66.4,19 L82.9,31 L94.4,31 L71.7,15.4 L71.7,15.4 Z" id="Shape" fill="#FECF09" sketch:type="MSShapeGroup" mask="url(#mask-2)"></path>
                </g>
                <path d="M28.7,41 L25.6,45.3 L22.5,41 L17.5,41 L23.1,48.2 L17.3,55.6 L22.2,55.6 L25.5,51.1 L28.8,55.6 L33.8,55.6 L28,48.1 L33.5,41 L28.7,41 Z" id="Shape" fill="#FFFFFF" sketch:type="MSShapeGroup"></path>
                <g id="Group">
                    <g id="Clipped">
                        <mask id="mask-4" sketch:name="SVGID_3_" fill="white">
                            <use xlink:href="#path-3"></use>
                        </mask>
                        <g id="SVGID_3_"></g>
                        <path d="M76,54 L77.2,50.8 C78.9,52 81.3,52.7 82.7,52.7 C84,52.7 84.5,52.3 84.5,51.6 L84.5,51.5 C84.5,50.6 83,50.3 81.3,49.8 C79.2,49.2 76.7,48.2 76.7,45.4 L76.7,45.3 C76.7,42.3 79.2,40.6 82.3,40.6 C84.2,40.6 86,41 87.6,42.1 L86.7,45.2 C85.2,44.3 83.3,43.8 82.2,43.8 C81.1,43.8 80.6,44.2 80.6,44.8 L80.6,45 C80.6,45.8 82.1,46.2 83.7,46.8 C85.9,47.5 88.3,48.5 88.3,51.2 L88.3,51.3 C88.3,54.6 85.8,56.1 82.4,56.1 C80.4,56 78,55.6 76,54" id="Shape" fill="#FFFFFF" sketch:type="MSShapeGroup" mask="url(#mask-4)"></path>
                    </g>
                    <g id="Clipped">
                        <mask id="mask-6" sketch:name="SVGID_3_" fill="white">
                            <use xlink:href="#path-5"></use>
                        </mask>
                        <g id="SVGID_3_"></g>
                        <path d="M91.5,54 L92.7,50.8 C94.4,52 96.8,52.7 98.2,52.7 C99.5,52.7 100,52.3 100,51.6 L100,51.5 C100,50.6 98.5,50.3 96.8,49.8 C94.7,49.2 92.2,48.2 92.2,45.4 L92.2,45.3 C92.2,42.3 94.7,40.6 97.8,40.6 C99.7,40.6 101.5,41 103.1,42.1 L102.2,45.2 C100.7,44.3 98.8,43.8 97.7,43.8 C96.6,43.8 96.1,44.2 96.1,44.8 L96.1,45 C96.1,45.8 97.6,46.2 99.2,46.8 C101.3,47.5 103.8,48.5 103.8,51.2 L103.8,51.3 C103.8,54.6 101.2,56.1 97.9,56.1 C96,56 93.6,55.6 91.5,54" id="Shape" fill="#FFFFFF" sketch:type="MSShapeGroup" mask="url(#mask-6)"></path>
                    </g>
                    <g id="Clipped">
                        <mask id="mask-8" sketch:name="SVGID_3_" fill="white">
                            <use xlink:href="#path-7"></use>
                        </mask>
                        <g id="SVGID_3_"></g>
                        <path d="M37.8,41 L42.3,41 L42.3,43.4 C43.2,42.5 44.6,40.8 47.2,40.8 C50.5,40.8 52.4,42.5 52.4,47.1 L52.4,55.7 L48.1,55.7 L48.1,47.4 C48.1,45.6 47.2,44.5 45.9,44.5 C44.4,44.5 43.1,45.4 42.3,46.4 L42.3,55.6 L37.8,55.6 L37.8,41 L37.8,41 Z" id="Shape" fill="#FFFFFF" sketch:type="MSShapeGroup" mask="url(#mask-8)"></path>
                    </g>
                    <g id="Clipped">
                        <mask id="mask-10" sketch:name="SVGID_3_" fill="white">
                            <use xlink:href="#path-9"></use>
                        </mask>
                        <g id="SVGID_3_"></g>
                        <path d="M11.4,46.4 C11.1,44.4 9.4,43.5 7.9,43.5 C6.4,43.5 4.8,44.5 4.4,46.4 L11.4,46.4 L11.4,46.4 Z M15,51.8 C14.6,52.9 13.1,56 8,56 C5.6,56 3.8,55.3 2.4,54 C0.7,52.5 0,50.6 0,48.4 C0,45.5 1.2,43.8 2.2,42.8 C3.9,41.1 6,40.8 7.7,40.8 C10.7,40.8 12.4,42 13.4,43.2 C15,45 15.2,47.3 15.2,48.8 L15.2,49 L4.2,49 C4.2,49.9 4.4,50.8 4.9,51.4 C5.3,52 6.3,52.8 7.9,52.8 C9.5,52.8 10.7,52.1 11.3,50.9 L15,51.8 L15,51.8 Z" id="Shape" fill="#FFFFFF" sketch:type="MSShapeGroup" mask="url(#mask-10)"></path>
                    </g>
                    <g id="Clipped">
                        <mask id="mask-12" sketch:name="SVGID_3_" fill="white">
                            <use xlink:href="#path-11"></use>
                        </mask>
                        <g id="SVGID_3_"></g>
                        <path d="M68.2,46.4 C67.9,44.4 66.2,43.5 64.7,43.5 C63.2,43.5 61.6,44.5 61.2,46.4 L68.2,46.4 L68.2,46.4 Z M71.8,51.8 C71.4,52.9 69.9,56 64.8,56 C62.4,56 60.6,55.3 59.2,54 C57.6,52.5 56.9,50.6 56.9,48.4 C56.9,45.5 58.1,43.8 59.1,42.8 C60.8,41.1 62.9,40.8 64.6,40.8 C67.6,40.8 69.3,42 70.3,43.2 C71.9,45 72.1,47.3 72.1,48.8 L72.1,49 L61.1,49 C61.1,49.9 61.3,50.8 61.8,51.4 C62.2,52 63.2,52.8 64.8,52.8 C66.4,52.8 67.6,52.1 68.2,50.9 L71.8,51.8 L71.8,51.8 Z" id="Shape" fill="#FFFFFF" sketch:type="MSShapeGroup" mask="url(#mask-12)"></path>
                    </g>
                </g>
            </g>
        </g>
    </g>
</svg>