<?xml version="1.0" encoding="UTF-8" standalone="no"?>
<svg width="320px" height="251px" viewBox="0 0 320 251" version="1.1" xmlns="http://www.w3.org/2000/svg" xmlns:xlink="http://www.w3.org/1999/xlink" xmlns:sketch="http://www.bohemiancoding.com/sketch/ns">
    <!-- Generator: Sketch 3.3.1 (12005) - http://www.bohemiancoding.com/sketch -->
    <title>zero</title>
    <desc>Created with Sketch.</desc>
    <defs>
        <rect id="path-1" x="0" y="1.33333333" width="320" height="250.518519"></rect>
        <rect id="path-3" x="0" y="1.33333333" width="320" height="250.518519"></rect>
    </defs>
    <g id="Page-1" stroke="none" stroke-width="1" fill="none" fill-rule="evenodd" sketch:type="MSPage">
        <g id="Web-M-Copy" sketch:type="MSArtboardGroup" transform="translate(-184.000000, -685.000000)">
            <g id="zero" sketch:type="MSLayerGroup" transform="translate(184.000000, 684.148148)">
                <g id="Group">
                    <g id="Clipped">
                        <mask id="mask-2" sketch:name="SVGID_1_" fill="white">
                            <use xlink:href="#path-1"></use>
                        </mask>
                        <g id="SVGID_1_"></g>
                        <path d="M74.6666667,46.3703704 C74.6666667,37.9259259 71.8518519,31.2592593 66.3703704,26.2222222 C60.8888889,21.1851852 53.7777778,18.8148148 44.8888889,18.8148148 C36,18.8148148 28.8888889,21.3333333 23.2592593,26.2222222 C17.6296296,31.1111111 14.8148148,37.7777778 14.8148148,46.3703704 L14.8148148,207.555556 C14.8148148,216 17.6296296,222.666667 23.2592593,227.703704 C28.8888889,232.592593 36.1481481,235.111111 44.8888889,235.111111 C53.6296296,235.111111 60.7407407,232.592593 66.3703704,227.703704 C72,222.814815 74.6666667,216.148148 74.6666667,207.555556 L74.6666667,46.3703704 L74.6666667,46.3703704 Z M89.6296296,206.962963 C89.6296296,214.074074 88.4444444,220.148148 85.9259259,225.333333 C83.5555556,230.518519 80.2962963,234.814815 76.1481481,238.222222 C72.1481481,241.62963 67.4074074,244.148148 61.9259259,245.925926 C56.4444444,247.703704 50.8148148,248.444444 44.7407407,248.444444 C38.6666667,248.444444 33.037037,247.555556 27.5555556,245.925926 C22.0740741,244.148148 17.3333333,241.62963 13.3333333,238.222222 C9.33333333,234.814815 6.07407407,230.518519 3.55555556,225.333333 C1.18518519,220.148148 -0.148148148,214.074074 -0.148148148,206.962963 L-0.148148148,46.962963 C-0.148148148,40.1481481 1.03703704,34.0740741 3.55555556,29.037037 C5.92592593,23.8518519 9.18518519,19.5555556 13.3333333,16 C17.3333333,12.4444444 22.0740741,9.77777778 27.5555556,8.14814815 C33.037037,6.37037037 38.6666667,5.62962963 44.7407407,5.62962963 C50.962963,5.62962963 56.8888889,6.51851852 62.2222222,8.14814815 C67.7037037,9.92592593 72.4444444,12.4444444 76.4444444,16 C80.4444444,19.5555556 83.7037037,23.8518519 85.9259259,29.037037 C88.2962963,34.2222222 89.3333333,40.1481481 89.3333333,46.962963 L89.3333333,206.962963 L89.6296296,206.962963 Z" id="Shape" fill="#010101" sketch:type="MSShapeGroup" mask="url(#mask-2)"></path>
                    </g>
                    <g id="Clipped">
                        <mask id="mask-4" sketch:name="SVGID_1_" fill="white">
                            <use xlink:href="#path-3"></use>
                        </mask>
                        <g id="SVGID_1_"></g>
                        <path d="M306.814815,128.148148 C306.814815,123.555556 305.185185,120 302.074074,117.481481 C298.962963,114.962963 294.666667,113.777778 289.333333,113.777778 C284,113.777778 279.703704,114.962963 276.444444,117.481481 C273.185185,120 271.555556,123.555556 271.555556,128.148148 L271.555556,221.62963 C271.555556,226.222222 273.185185,229.62963 276.444444,232.148148 C279.703704,234.518519 284,235.703704 289.333333,235.703704 C294.666667,235.703704 298.814815,234.518519 302.074074,232.148148 C305.185185,229.777778 306.814815,226.222222 306.814815,221.62963 L306.814815,128.148148 L306.814815,128.148148 Z M320,221.333333 C320,230.074074 316.888889,236.592593 310.814815,240.888889 C304.740741,245.185185 297.481481,247.407407 289.481481,247.407407 C281.333333,247.407407 274.222222,245.185185 268.148148,240.888889 C262.074074,236.592593 258.962963,230.074074 258.962963,221.333333 L258.962963,128.444444 C258.962963,119.555556 262.074074,113.037037 268.148148,108.740741 C274.222222,104.444444 281.333333,102.37037 289.481481,102.37037 C297.62963,102.37037 304.740741,104.444444 310.814815,108.740741 C316.888889,113.037037 320,119.555556 320,128.444444 L320,221.333333 L320,221.333333 Z M186.962963,251.851852 L175.555556,251.851852 L284.592593,1.33333333 L296,1.33333333 L186.962963,251.851852 L186.962963,251.851852 Z M199.407407,32.1481481 C199.407407,27.5555556 197.777778,24 194.666667,21.4814815 C191.555556,18.962963 187.259259,17.7777778 181.925926,17.7777778 C176.592593,17.7777778 172.296296,19.1111111 169.037037,21.4814815 C165.777778,24 164.148148,27.5555556 164.148148,32.1481481 L164.148148,126.074074 C164.148148,130.37037 165.777778,133.777778 169.037037,136.296296 C172.296296,138.814815 176.592593,140 181.925926,140 C187.259259,140 191.407407,138.814815 194.666667,136.296296 C197.777778,133.777778 199.407407,130.37037 199.407407,126.074074 L199.407407,32.1481481 L199.407407,32.1481481 Z M212.592593,125.481481 C212.592593,134.222222 209.481481,140.740741 203.407407,145.037037 C197.333333,149.333333 190.074074,151.555556 182.074074,151.555556 C173.925926,151.555556 166.814815,149.333333 160.740741,145.037037 C154.666667,140.740741 151.555556,134.222222 151.555556,125.481481 L151.555556,32.5925926 C151.555556,23.8518519 154.666667,17.3333333 160.740741,13.037037 C166.814815,8.74074074 173.925926,6.51851852 182.074074,6.51851852 C190.222222,6.51851852 197.333333,8.74074074 203.407407,13.037037 C209.481481,17.3333333 212.592593,23.8518519 212.592593,32.5925926 L212.592593,125.481481 L212.592593,125.481481 Z" id="Shape" fill="#010101" sketch:type="MSShapeGroup" mask="url(#mask-4)"></path>
                    </g>
                </g>
            </g>
        </g>
    </g>
</svg>